Blackout 2AM.ufo
<glyph name="exclam" format="1">
  <advance width="207"/>
  <unicode hex="0021"/>
  <outline>
    <contour>
      <point x="-8" y="840" type="line"/>
      <point x="215" y="840" type="line"/>
      <point x="215" y="0" type="line"/>
      <point x="-8" y="0" type="line"/>
    </contour>
    <contour>
      <point x="35" y="728" type="line"/>
      <point x="35" y="312" type="line"/>
      <point x="170" y="312" type="line"/>
      <point x="170" y="728" type="line"/>
    </contour>
    <contour>
      <point x="170" y="129" type="line"/>
      <point x="170" y="264" type="line"/>
      <point x="36" y="264" type="line"/>
      <point x="36" y="129" type="line"/>
    </contour>
  </outline>
</glyph>
<glyph name="dollar" format="1">
  <advance width="394"/>
  <unicode hex="0024"/>
  <outline>
    <contour>
      <point x="401" y="840" type="line"/>
      <point x="401" y="0" type="line"/>
      <point x="-5" y="0" type="line"/>
      <point x="-5" y="840" type="line"/>
    </contour>
    <contour>
      <point x="192" y="501" type="line"/>
      <point x="180" y="504"/>
      <point x="170" y="515"/>
      <point x="170" y="528" type="curve" smooth="yes"/>
      <point x="170" y="543"/>
      <point x="182" y="556"/>
      <point x="197" y="556" type="curve" smooth="yes"/>
      <point x="213" y="556"/>
      <point x="225" y="543"/>
      <point x="225" y="528" type="curve"/>
      <point x="359" y="528" type="line"/>
      <point x="359" y="591"/>
      <point x="324" y="644"/>
      <point x="273" y="671" type="curve"/>
      <point x="273" y="733" type="line"/>
      <point x="138" y="733" type="line"/>
      <point x="138" y="678" type="line"/>
      <point x="78" y="654"/>
      <point x="36" y="596"/>
      <point x="36" y="528" type="curve" smooth="yes"/>
      <point x="36" y="484"/>
      <point x="54" y="443"/>
      <point x="83" y="414" type="curve" smooth="yes"/>
      <point x="112" y="385"/>
      <point x="153" y="367"/>
      <point x="197" y="367" type="curve" smooth="yes"/>
      <point x="202" y="367" type="line"/>
      <point x="215" y="364"/>
      <point x="225" y="353"/>
      <point x="225" y="340" type="curve" smooth="yes"/>
      <point x="225" y="325"/>
      <point x="213" y="312"/>
      <point x="197" y="312" type="curve" smooth="yes"/>
      <point x="182" y="312"/>
      <point x="170" y="325"/>
      <point x="170" y="340" type="curve"/>
      <point x="36" y="340" type="line"/>
      <point x="36" y="272"/>
      <point x="78" y="214"/>
      <point x="138" y="190" type="curve"/>
      <point x="138" y="129" type="line"/>
      <point x="273" y="129" type="line"/>
      <point x="273" y="197" type="line"/>
      <point x="324" y="224"/>
      <point x="359" y="277"/>
      <point x="359" y="340" type="curve" smooth="yes"/>
      <point x="359" y="384"/>
      <point x="340" y="425"/>
      <point x="311" y="454" type="curve" smooth="yes"/>
      <point x="282" y="483"/>
      <point x="241" y="501"/>
      <point x="197" y="501" type="curve" smooth="yes"/>
    </contour>
  </outline>
</glyph>
<glyph name="percent" format="1">
  <advance width="631"/>
  <unicode hex="0025"/>
  <outline>
    <contour>
      <point x="634" y="840" type="line"/>
      <point x="634" y="0" type="line"/>
      <point x="-9" y="0" type="line"/>
      <point x="-9" y="840" type="line"/>
    </contour>
    <contour>
      <point x="29" y="506"/>
      <point x="40" y="482"/>
      <point x="58" y="464" type="curve" smooth="yes"/>
      <point x="76" y="446"/>
      <point x="99" y="435"/>
      <point x="126" y="435" type="curve" smooth="yes"/>
      <point x="181" y="435"/>
      <point x="224" y="478"/>
      <point x="224" y="533" type="curve" smooth="yes"/>
      <point x="224" y="560"/>
      <point x="214" y="584"/>
      <point x="196" y="602" type="curve" smooth="yes"/>
      <point x="178" y="620"/>
      <point x="153" y="630"/>
      <point x="126" y="630" type="curve" smooth="yes"/>
      <point x="99" y="630"/>
      <point x="76" y="620"/>
      <point x="58" y="602" type="curve" smooth="yes"/>
      <point x="40" y="584"/>
      <point x="29" y="560"/>
      <point x="29" y="533" type="curve" smooth="yes"/>
    </contour>
    <contour>
      <point x="199" y="129" type="line"/>
      <point x="551" y="728" type="line"/>
      <point x="416" y="728" type="line"/>
      <point x="64" y="129" type="line"/>
    </contour>
    <contour>
      <point x="520" y="238"/>
      <point x="544" y="249"/>
      <point x="562" y="267" type="curve" smooth="yes"/>
      <point x="580" y="285"/>
      <point x="590" y="309"/>
      <point x="590" y="336" type="curve" smooth="yes"/>
      <point x="590" y="363"/>
      <point x="580" y="387"/>
      <point x="562" y="405" type="curve" smooth="yes"/>
      <point x="544" y="423"/>
      <point x="520" y="433"/>
      <point x="493" y="433" type="curve" smooth="yes"/>
      <point x="466" y="433"/>
      <point x="442" y="423"/>
      <point x="424" y="405" type="curve" smooth="yes"/>
      <point x="406" y="387"/>
      <point x="395" y="363"/>
      <point x="395" y="336" type="curve" smooth="yes"/>
      <point x="395" y="281"/>
      <point x="438" y="238"/>
      <point x="493" y="238" type="curve" smooth="yes"/>
    </contour>
  </outline>
</glyph>
<glyph name="ampersand" format="1">
  <advance width="580"/>
  <unicode hex="0026"/>
  <outline>
    <contour>
      <point x="590" y="840" type="line"/>
      <point x="590" y="0" type="line"/>
      <point x="-9" y="0" type="line"/>
      <point x="-9" y="840" type="line"/>
    </contour>
    <contour>
      <point x="476" y="288" type="line"/>
      <point x="555" y="366" type="line"/>
      <point x="474" y="447" type="line"/>
      <point x="396" y="368" type="line"/>
      <point x="305" y="460" type="line"/>
      <point x="352" y="483"/>
      <point x="382" y="529"/>
      <point x="382" y="585" type="curve" smooth="yes"/>
      <point x="382" y="624"/>
      <point x="366" y="659"/>
      <point x="341" y="684" type="curve" smooth="yes"/>
      <point x="316" y="709"/>
      <point x="281" y="725"/>
      <point x="242" y="725" type="curve" smooth="yes"/>
      <point x="203" y="725"/>
      <point x="168" y="709"/>
      <point x="143" y="684" type="curve" smooth="yes"/>
      <point x="118" y="659"/>
      <point x="102" y="624"/>
      <point x="102" y="585" type="curve" smooth="yes"/>
      <point x="102" y="553"/>
      <point x="112" y="523"/>
      <point x="131" y="500" type="curve"/>
      <point x="78" y="464"/>
      <point x="42" y="403"/>
      <point x="42" y="334" type="curve" smooth="yes"/>
      <point x="42" y="278"/>
      <point x="65" y="228"/>
      <point x="101" y="192" type="curve" smooth="yes"/>
      <point x="137" y="156"/>
      <point x="187" y="134"/>
      <point x="242" y="134" type="curve" smooth="yes"/>
      <point x="303" y="134"/>
      <point x="357" y="161"/>
      <point x="394" y="204" type="curve"/>
      <point x="467" y="130" type="line"/>
      <point x="551" y="214" type="line"/>
    </contour>
  </outline>
</glyph>
<glyph name="asterisk" format="1">
  <advance width="380"/>
  <unicode hex="002A"/>
  <outline>
    <contour>
      <point x="-9" y="840" type="line"/>
      <point x="386" y="840" type="line"/>
      <point x="386" y="0" type="line"/>
      <point x="-9" y="0" type="line"/>
    </contour>
    <contour>
      <point x="330" y="587" type="line"/>
      <point x="273" y="644" type="line"/>
      <point x="353" y="665" type="line"/>
      <point x="330" y="751" type="line"/>
      <point x="237" y="726" type="line"/>
      <point x="237" y="811" type="line"/>
      <point x="148" y="811" type="line"/>
      <point x="148" y="726" type="line"/>
      <point x="56" y="751" type="line"/>
      <point x="34" y="665" type="line"/>
      <point x="114" y="644" type="line"/>
      <point x="55" y="585" type="line"/>
      <point x="118" y="523" type="line"/>
      <point x="194" y="598" type="line"/>
      <point x="267" y="525" type="line"/>
    </contour>
  </outline>
</glyph>
<glyph name="plus" format="1">
  <advance width="504"/>
  <unicode hex="002B"/>
  <outline>
    <contour>
      <point x="-10" y="840" type="line"/>
      <point x="513" y="840" type="line"/>
      <point x="513" y="0" type="line"/>
      <point x="-10" y="0" type="line"/>
    </contour>
    <contour>
      <point x="460" y="367" type="line"/>
      <point x="460" y="502" type="line"/>
      <point x="319" y="502" type="line"/>
      <point x="319" y="643" type="line"/>
      <point x="184" y="643" type="line"/>
      <point x="184" y="502" type="line"/>
      <point x="43" y="502" type="line"/>
      <point x="43" y="367" type="line"/>
      <point x="184" y="367" type="line"/>
      <point x="184" y="226" type="line"/>
      <point x="319" y="226" type="line"/>
      <point x="319" y="367" type="line"/>
    </contour>
  </outline>
</glyph>
<glyph name="comma" format="1">
  <advance width="211"/>
  <unicode hex="002C"/>
  <outline>
    <contour>
      <point x="-7" y="840" type="line"/>
      <point x="216" y="840" type="line"/>
      <point x="216" y="0" type="line"/>
      <point x="-7" y="0" type="line"/>
    </contour>
    <contour>
      <point x="173" y="129" type="line"/>
      <point x="173" y="264" type="line"/>
      <point x="38" y="264" type="line"/>
      <point x="38" y="129" type="line"/>
      <point x="90" y="129" type="line"/>
      <point x="48" y="54" type="line"/>
      <point x="130" y="54" type="line"/>
    </contour>
  </outline>
</glyph>
<glyph name="hyphen" format="1">
  <advance width="491"/>
  <unicode hex="002D"/>
  <outline>
    <contour>
      <point x="-19" y="840" type="line"/>
      <point x="504" y="840" type="line"/>
      <point x="504" y="0" type="line"/>
      <point x="-19" y="0" type="line"/>
    </contour>
    <contour>
      <point x="449" y="367" type="line"/>
      <point x="449" y="502" type="line"/>
      <point x="33" y="502" type="line"/>
      <point x="33" y="367" type="line"/>
    </contour>
  </outline>
</glyph>
<glyph name="period" format="1">
  <advance width="209"/>
  <unicode hex="002E"/>
  <outline>
    <contour>
      <point x="-7" y="840" type="line"/>
      <point x="216" y="840" type="line"/>
      <point x="216" y="0" type="line"/>
      <point x="-7" y="0" type="line"/>
    </contour>
    <contour>
      <point x="172" y="129" type="line"/>
      <point x="172" y="264" type="line"/>
      <point x="38" y="264" type="line"/>
      <point x="38" y="129" type="line"/>
    </contour>
  </outline>
</glyph>
<glyph name="zero" format="1">
  <advance width="437"/>
  <unicode hex="0030"/>
  <outline>
    <contour>
      <point x="447" y="840" type="line"/>
      <point x="447" y="0" type="line"/>
      <point x="-9" y="0" type="line"/>
      <point x="-9" y="840" type="line"/>
    </contour>
    <contour>
      <point x="408" y="523" type="line"/>
      <point x="408" y="542" type="line"/>
      <point x="408" y="543" type="line" smooth="yes"/>
      <point x="408" y="596"/>
      <point x="387" y="643"/>
      <point x="353" y="678" type="curve" smooth="yes"/>
      <point x="319" y="713"/>
      <point x="270" y="734"/>
      <point x="218" y="734" type="curve" smooth="yes"/>
      <point x="165" y="734"/>
      <point x="118" y="713"/>
      <point x="83" y="678" type="curve" smooth="yes"/>
      <point x="48" y="643"/>
      <point x="26" y="596"/>
      <point x="26" y="543" type="curve" smooth="yes"/>
      <point x="26" y="296" type="line" smooth="yes"/>
      <point x="26" y="249"/>
      <point x="48" y="204"/>
      <point x="84" y="170" type="curve" smooth="yes"/>
      <point x="119" y="136"/>
      <point x="166" y="114"/>
      <point x="218" y="114" type="curve" smooth="yes"/>
      <point x="270" y="114"/>
      <point x="319" y="135"/>
      <point x="353" y="170" type="curve" smooth="yes"/>
      <point x="387" y="205"/>
      <point x="408" y="253"/>
      <point x="408" y="305" type="curve" smooth="yes"/>
      <point x="408" y="306" type="line"/>
      <point x="408" y="326" type="line"/>
    </contour>
  </outline>
</glyph>
<glyph name="one" format="1">
  <advance width="316"/>
  <unicode hex="0031"/>
  <outline>
    <contour>
      <point x="-9" y="840" type="line"/>
      <point x="327" y="840" type="line"/>
      <point x="327" y="0" type="line"/>
      <point x="-9" y="0" type="line"/>
    </contour>
    <contour>
      <point x="275" y="114" type="line"/>
      <point x="275" y="735" type="line"/>
      <point x="135" y="735" type="line"/>
      <point x="135" y="735" type="line"/>
      <point x="135" y="735" type="line"/>
      <point x="135" y="735" type="line"/>
      <point x="135" y="735" type="line"/>
      <point x="13" y="607" type="line"/>
      <point x="112" y="508" type="line"/>
      <point x="135" y="531" type="line"/>
      <point x="135" y="114" type="line"/>
    </contour>
  </outline>
</glyph>
<glyph name="two" format="1">
  <advance width="444"/>
  <unicode hex="0032"/>
  <outline>
    <contour>
      <point x="449" y="840" type="line"/>
      <point x="449" y="0" type="line"/>
      <point x="-10" y="0" type="line"/>
      <point x="-10" y="840" type="line"/>
    </contour>
    <contour>
      <point x="218" y="255" type="line"/>
      <point x="357" y="410" type="line" smooth="yes"/>
      <point x="392" y="447"/>
      <point x="413" y="490"/>
      <point x="413" y="542" type="curve" smooth="yes"/>
      <point x="413" y="582"/>
      <point x="401" y="621"/>
      <point x="378" y="654" type="curve" smooth="yes"/>
      <point x="354" y="687"/>
      <point x="322" y="712"/>
      <point x="283" y="725" type="curve" smooth="yes"/>
      <point x="263" y="732"/>
      <point x="242" y="735"/>
      <point x="221" y="735" type="curve" smooth="yes"/>
      <point x="168" y="735"/>
      <point x="120" y="713"/>
      <point x="85" y="678" type="curve" smooth="yes"/>
      <point x="50" y="643"/>
      <point x="29" y="595"/>
      <point x="29" y="542" type="curve"/>
      <point x="169" y="542" type="line"/>
      <point x="169" y="571"/>
      <point x="193" y="594"/>
      <point x="221" y="594" type="curve" smooth="yes"/>
      <point x="244" y="594"/>
      <point x="263" y="579"/>
      <point x="270" y="558" type="curve"/>
      <point x="272" y="553"/>
      <point x="273" y="548"/>
      <point x="273" y="543" type="curve" smooth="yes"/>
      <point x="273" y="534"/>
      <point x="270" y="525"/>
      <point x="265" y="516" type="curve"/>
      <point x="39" y="255" type="line"/>
      <point x="39" y="115" type="line"/>
      <point x="411" y="115" type="line"/>
      <point x="411" y="255" type="line"/>
    </contour>
  </outline>
</glyph>
<glyph name="three" format="1">
  <advance width="432"/>
  <unicode hex="0033"/>
  <outline>
    <contour>
      <point x="439" y="840" type="line"/>
      <point x="439" y="0" type="line"/>
      <point x="-11" y="0" type="line"/>
      <point x="-11" y="840" type="line"/>
    </contour>
    <contour>
      <point x="407" y="352"/>
      <point x="392" y="392"/>
      <point x="365" y="424" type="curve"/>
      <point x="392" y="456"/>
      <point x="407" y="497"/>
      <point x="407" y="542" type="curve" smooth="yes"/>
      <point x="407" y="582"/>
      <point x="395" y="621"/>
      <point x="372" y="654" type="curve" smooth="yes"/>
      <point x="348" y="687"/>
      <point x="316" y="712"/>
      <point x="277" y="725" type="curve" smooth="yes"/>
      <point x="257" y="732"/>
      <point x="236" y="735"/>
      <point x="215" y="735" type="curve" smooth="yes"/>
      <point x="163" y="735"/>
      <point x="115" y="713"/>
      <point x="80" y="678" type="curve" smooth="yes"/>
      <point x="45" y="643"/>
      <point x="24" y="595"/>
      <point x="24" y="542" type="curve"/>
      <point x="164" y="542" type="line"/>
      <point x="164" y="571"/>
      <point x="187" y="594"/>
      <point x="215" y="594" type="curve" smooth="yes"/>
      <point x="238" y="594"/>
      <point x="258" y="579"/>
      <point x="265" y="558" type="curve"/>
      <point x="266" y="551"/>
      <point x="267" y="546"/>
      <point x="267" y="543" type="curve" smooth="yes"/>
      <point x="267" y="514"/>
      <point x="244" y="494"/>
      <point x="215" y="494" type="curve" smooth="yes"/>
      <point x="127" y="494" type="line"/>
      <point x="127" y="354" type="line"/>
      <point x="215" y="354" type="line" smooth="yes"/>
      <point x="244" y="354"/>
      <point x="267" y="334"/>
      <point x="267" y="306" type="curve" smooth="yes"/>
      <point x="267" y="303"/>
      <point x="266" y="298"/>
      <point x="265" y="291" type="curve"/>
      <point x="258" y="270"/>
      <point x="238" y="255"/>
      <point x="215" y="255" type="curve" smooth="yes"/>
      <point x="187" y="255"/>
      <point x="164" y="278"/>
      <point x="164" y="307" type="curve"/>
      <point x="24" y="307" type="line"/>
      <point x="24" y="254"/>
      <point x="45" y="206"/>
      <point x="80" y="171" type="curve" smooth="yes"/>
      <point x="115" y="135"/>
      <point x="163" y="114"/>
      <point x="215" y="114" type="curve" smooth="yes"/>
      <point x="258" y="114"/>
      <point x="298" y="128"/>
      <point x="330" y="152" type="curve" smooth="yes"/>
      <point x="362" y="176"/>
      <point x="386" y="210"/>
      <point x="398" y="250" type="curve" smooth="yes"/>
      <point x="404" y="268"/>
      <point x="407" y="287"/>
      <point x="407" y="307" type="curve" smooth="yes"/>
    </contour>
  </outline>
</glyph>
<glyph name="four" format="1">
  <advance width="478"/>
  <unicode hex="0034"/>
  <outline>
    <contour>
      <point x="-10" y="840" type="line"/>
      <point x="487" y="840" type="line"/>
      <point x="487" y="0" type="line"/>
      <point x="-10" y="0" type="line"/>
    </contour>
    <contour>
      <point x="450" y="354" type="line"/>
      <point x="450" y="494" type="line"/>
      <point x="374" y="494" type="line"/>
      <point x="374" y="735" type="line"/>
      <point x="235" y="735" type="line"/>
      <point x="235" y="733" type="line"/>
      <point x="30" y="494" type="line"/>
      <point x="30" y="494" type="line"/>
      <point x="30" y="354" type="line"/>
      <point x="235" y="354" type="line"/>
      <point x="235" y="114" type="line"/>
      <point x="374" y="114" type="line"/>
      <point x="374" y="354" type="line"/>
    </contour>
  </outline>
</glyph>
<glyph name="five" format="1">
  <advance width="444"/>
  <unicode hex="0035"/>
  <outline>
    <contour>
      <point x="456" y="840" type="line"/>
      <point x="456" y="0" type="line"/>
      <point x="-12" y="0" type="line"/>
      <point x="-12" y="840" type="line"/>
    </contour>
    <contour>
      <point x="276" y="115"/>
      <point x="324" y="136"/>
      <point x="359" y="171" type="curve" smooth="yes"/>
      <point x="394" y="206"/>
      <point x="415" y="254"/>
      <point x="415" y="307" type="curve" smooth="yes"/>
      <point x="415" y="355" type="line"/>
      <point x="415" y="357" type="line"/>
      <point x="415" y="380" type="line" smooth="yes"/>
      <point x="415" y="420"/>
      <point x="397" y="462"/>
      <point x="365" y="494" type="curve" smooth="yes"/>
      <point x="332" y="525"/>
      <point x="284" y="546"/>
      <point x="224" y="546" type="curve" smooth="yes"/>
      <point x="205" y="546"/>
      <point x="188" y="544"/>
      <point x="172" y="539" type="curve"/>
      <point x="172" y="593" type="line"/>
      <point x="404" y="593" type="line"/>
      <point x="404" y="733" type="line"/>
      <point x="32" y="733" type="line"/>
      <point x="32" y="593" type="line"/>
      <point x="32" y="355" type="line"/>
      <point x="172" y="355" type="line"/>
      <point x="172" y="383"/>
      <point x="195" y="406"/>
      <point x="224" y="406" type="curve" smooth="yes"/>
      <point x="259" y="406"/>
      <point x="279" y="381"/>
      <point x="279" y="354" type="curve" smooth="yes"/>
      <point x="279" y="307" type="line" smooth="yes"/>
      <point x="279" y="279"/>
      <point x="252" y="255"/>
      <point x="224" y="255" type="curve" smooth="yes"/>
      <point x="195" y="255"/>
      <point x="172" y="278"/>
      <point x="172" y="307" type="curve"/>
      <point x="32" y="307" type="line"/>
      <point x="32" y="254"/>
      <point x="53" y="206"/>
      <point x="88" y="171" type="curve" smooth="yes"/>
      <point x="123" y="136"/>
      <point x="171" y="115"/>
      <point x="224" y="115" type="curve" smooth="yes"/>
    </contour>
  </outline>
</glyph>
<glyph name="six" format="1">
  <advance width="448"/>
  <unicode hex="0036"/>
  <outline>
    <contour>
      <point x="454" y="840" type="line"/>
      <point x="454" y="0" type="line"/>
      <point x="-9" y="0" type="line"/>
      <point x="-9" y="840" type="line"/>
    </contour>
    <contour>
      <point x="176" y="546" type="line" smooth="yes"/>
      <point x="176" y="574"/>
      <point x="199" y="597"/>
      <point x="228" y="597" type="curve" smooth="yes"/>
      <point x="256" y="597"/>
      <point x="280" y="574"/>
      <point x="280" y="546" type="curve"/>
      <point x="419" y="546" type="line"/>
      <point x="419" y="598"/>
      <point x="398" y="646"/>
      <point x="363" y="681" type="curve" smooth="yes"/>
      <point x="328" y="716"/>
      <point x="281" y="737"/>
      <point x="228" y="737" type="curve" smooth="yes"/>
      <point x="176" y="737"/>
      <point x="129" y="715"/>
      <point x="94" y="682" type="curve" smooth="yes"/>
      <point x="58" y="649"/>
      <point x="36" y="603"/>
      <point x="36" y="555" type="curve" smooth="yes"/>
      <point x="36" y="301" type="line" smooth="yes"/>
      <point x="36" y="249"/>
      <point x="58" y="204"/>
      <point x="93" y="170" type="curve" smooth="yes"/>
      <point x="128" y="136"/>
      <point x="176" y="115"/>
      <point x="228" y="115" type="curve" smooth="yes"/>
      <point x="280" y="115"/>
      <point x="328" y="136"/>
      <point x="363" y="171" type="curve" smooth="yes"/>
      <point x="398" y="206"/>
      <point x="419" y="254"/>
      <point x="419" y="306" type="curve" smooth="yes"/>
      <point x="419" y="307" type="line" smooth="yes"/>
      <point x="419" y="359"/>
      <point x="398" y="407"/>
      <point x="363" y="442" type="curve" smooth="yes"/>
      <point x="328" y="477"/>
      <point x="280" y="498"/>
      <point x="228" y="498" type="curve" smooth="yes"/>
      <point x="209" y="498"/>
      <point x="192" y="495"/>
      <point x="176" y="491" type="curve"/>
    </contour>
  </outline>
</glyph>
<glyph name="seven" format="1">
  <advance width="450"/>
  <unicode hex="0037"/>
  <outline>
    <contour>
      <point x="-8" y="840" type="line"/>
      <point x="455" y="840" type="line"/>
      <point x="455" y="0" type="line"/>
      <point x="-8" y="0" type="line"/>
    </contour>
    <contour>
      <point x="424" y="595" type="line"/>
      <point x="424" y="734" type="line"/>
      <point x="367" y="734" type="line"/>
      <point x="367" y="735" type="line"/>
      <point x="358" y="735" type="line"/>
      <point x="358" y="734" type="line"/>
      <point x="30" y="734" type="line"/>
      <point x="30" y="595" type="line"/>
      <point x="283" y="595" type="line"/>
      <point x="25" y="114" type="line"/>
      <point x="165" y="114" type="line"/>
    </contour>
  </outline>
</glyph>
<glyph name="eight" format="1">
  <advance width="441"/>
  <unicode hex="0038"/>
  <outline>
    <contour>
      <point x="449" y="840" type="line"/>
      <point x="449" y="0" type="line"/>
      <point x="-13" y="0" type="line"/>
      <point x="-13" y="840" type="line"/>
    </contour>
    <contour>
      <point x="409" y="306" type="line" smooth="yes"/>
      <point x="409" y="353"/>
      <point x="393" y="393"/>
      <point x="366" y="424" type="curve"/>
      <point x="393" y="456"/>
      <point x="409" y="497"/>
      <point x="409" y="542" type="curve" smooth="yes"/>
      <point x="409" y="543" type="line" smooth="yes"/>
      <point x="409" y="596"/>
      <point x="388" y="643"/>
      <point x="353" y="678" type="curve" smooth="yes"/>
      <point x="318" y="713"/>
      <point x="270" y="734"/>
      <point x="218" y="734" type="curve" smooth="yes"/>
      <point x="165" y="734"/>
      <point x="118" y="713"/>
      <point x="83" y="678" type="curve" smooth="yes"/>
      <point x="48" y="643"/>
      <point x="26" y="596"/>
      <point x="26" y="543" type="curve" smooth="yes"/>
      <point x="26" y="542" type="line" smooth="yes"/>
      <point x="26" y="497"/>
      <point x="43" y="456"/>
      <point x="70" y="424" type="curve"/>
      <point x="43" y="393"/>
      <point x="26" y="353"/>
      <point x="26" y="306" type="curve" smooth="yes"/>
      <point x="26" y="305" type="line" smooth="yes"/>
      <point x="26" y="253"/>
      <point x="48" y="205"/>
      <point x="83" y="170" type="curve" smooth="yes"/>
      <point x="118" y="135"/>
      <point x="165" y="114"/>
      <point x="218" y="114" type="curve" smooth="yes"/>
      <point x="270" y="114"/>
      <point x="318" y="135"/>
      <point x="353" y="170" type="curve" smooth="yes"/>
      <point x="388" y="205"/>
      <point x="409" y="253"/>
      <point x="409" y="305" type="curve" smooth="yes"/>
    </contour>
  </outline>
</glyph>
<glyph name="nine" format="1">
  <advance width="441"/>
  <unicode hex="0039"/>
  <outline>
    <contour>
      <point x="451" y="840" type="line"/>
      <point x="451" y="0" type="line"/>
      <point x="-12" y="0" type="line"/>
      <point x="-12" y="840" type="line"/>
    </contour>
    <contour>
      <point x="270" y="115"/>
      <point x="318" y="137"/>
      <point x="354" y="170" type="curve" smooth="yes"/>
      <point x="389" y="203"/>
      <point x="411" y="249"/>
      <point x="411" y="297" type="curve" smooth="yes"/>
      <point x="411" y="552" type="line" smooth="yes"/>
      <point x="411" y="603"/>
      <point x="389" y="650"/>
      <point x="354" y="683" type="curve" smooth="yes"/>
      <point x="319" y="716"/>
      <point x="271" y="737"/>
      <point x="219" y="737" type="curve" smooth="yes"/>
      <point x="166" y="737"/>
      <point x="119" y="716"/>
      <point x="84" y="681" type="curve" smooth="yes"/>
      <point x="49" y="646"/>
      <point x="27" y="599"/>
      <point x="27" y="546" type="curve" smooth="yes"/>
      <point x="27" y="493"/>
      <point x="49" y="445"/>
      <point x="84" y="410" type="curve" smooth="yes"/>
      <point x="119" y="375"/>
      <point x="166" y="354"/>
      <point x="219" y="354" type="curve" smooth="yes"/>
      <point x="236" y="354"/>
      <point x="253" y="357"/>
      <point x="271" y="362" type="curve"/>
      <point x="271" y="307" type="line" smooth="yes"/>
      <point x="271" y="278"/>
      <point x="247" y="255"/>
      <point x="219" y="255" type="curve" smooth="yes"/>
      <point x="190" y="255"/>
      <point x="167" y="278"/>
      <point x="167" y="307" type="curve"/>
      <point x="27" y="307" type="line"/>
      <point x="27" y="254"/>
      <point x="48" y="206"/>
      <point x="83" y="171" type="curve" smooth="yes"/>
      <point x="118" y="136"/>
      <point x="166" y="115"/>
      <point x="219" y="115" type="curve" smooth="yes"/>
    </contour>
  </outline>
</glyph>
<glyph name="colon" format="1">
  <advance width="212"/>
  <unicode hex="003A"/>
  <outline>
    <contour>
      <point x="-6" y="840" type="line"/>
      <point x="217" y="840" type="line"/>
      <point x="217" y="0" type="line"/>
      <point x="-6" y="0" type="line"/>
    </contour>
    <contour>
      <point x="172" y="129" type="line"/>
      <point x="172" y="264" type="line"/>
      <point x="38" y="264" type="line"/>
      <point x="38" y="129" type="line"/>
    </contour>
    <contour>
      <point x="172" y="397" type="line"/>
      <point x="172" y="532" type="line"/>
      <point x="38" y="532" type="line"/>
      <point x="38" y="397" type="line"/>
    </contour>
  </outline>
</glyph>
<glyph name="semicolon" format="1">
  <advance width="213"/>
  <unicode hex="003B"/>
  <outline>
    <contour>
      <point x="-5" y="840" type="line"/>
      <point x="218" y="840" type="line"/>
      <point x="218" y="0" type="line"/>
      <point x="-5" y="0" type="line"/>
    </contour>
    <contour>
      <point x="175" y="129" type="line"/>
      <point x="175" y="264" type="line"/>
      <point x="41" y="264" type="line"/>
      <point x="41" y="129" type="line"/>
      <point x="93" y="129" type="line"/>
      <point x="50" y="54" type="line"/>
      <point x="132" y="54" type="line"/>
    </contour>
    <contour>
      <point x="175" y="397" type="line"/>
      <point x="175" y="532" type="line"/>
      <point x="41" y="532" type="line"/>
      <point x="41" y="397" type="line"/>
    </contour>
  </outline>
</glyph>
<glyph name="equal" format="1">
  <advance width="500"/>
  <unicode hex="003D"/>
  <outline>
    <contour>
      <point x="-10" y="840" type="line"/>
      <point x="513" y="840" type="line"/>
      <point x="513" y="0" type="line"/>
      <point x="-10" y="0" type="line"/>
    </contour>
    <contour>
      <point x="460" y="229" type="line"/>
      <point x="460" y="364" type="line"/>
      <point x="43" y="364" type="line"/>
      <point x="43" y="229" type="line"/>
    </contour>
    <contour>
      <point x="460" y="509" type="line"/>
      <point x="460" y="645" type="line"/>
      <point x="43" y="645" type="line"/>
      <point x="43" y="509" type="line"/>
    </contour>
  </outline>
</glyph>
<glyph name="question" format="1">
  <advance width="462"/>
  <unicode hex="003F"/>
  <outline>
    <contour>
      <point x="469" y="840" type="line"/>
      <point x="469" y="0" type="line"/>
      <point x="-10" y="0" type="line"/>
      <point x="-10" y="840" type="line"/>
    </contour>
    <contour>
      <point x="257" y="264" type="line"/>
      <point x="123" y="264" type="line"/>
      <point x="123" y="129" type="line"/>
      <point x="257" y="129" type="line"/>
    </contour>
    <contour>
      <point x="323" y="384"/>
      <point x="352" y="403"/>
      <point x="376" y="431" type="curve" smooth="yes"/>
      <point x="400" y="458"/>
      <point x="418" y="494"/>
      <point x="418" y="542" type="curve" smooth="yes"/>
      <point x="418" y="593"/>
      <point x="397" y="640"/>
      <point x="364" y="673" type="curve" smooth="yes"/>
      <point x="331" y="706"/>
      <point x="284" y="727"/>
      <point x="233" y="727" type="curve" smooth="yes"/>
      <point x="180" y="727"/>
      <point x="133" y="706"/>
      <point x="98" y="673" type="curve" smooth="yes"/>
      <point x="63" y="640"/>
      <point x="42" y="593"/>
      <point x="42" y="542" type="curve"/>
      <point x="176" y="542" type="line"/>
      <point x="176" y="570"/>
      <point x="201" y="593"/>
      <point x="233" y="593" type="curve" smooth="yes"/>
      <point x="261" y="593"/>
      <point x="284" y="570"/>
      <point x="284" y="542" type="curve" smooth="yes"/>
      <point x="284" y="532"/>
      <point x="280" y="523"/>
      <point x="272" y="515" type="curve" smooth="yes"/>
      <point x="264" y="507"/>
      <point x="249" y="496"/>
      <point x="228" y="483" type="curve" smooth="yes"/>
      <point x="207" y="470"/>
      <point x="180" y="454"/>
      <point x="160" y="431" type="curve" smooth="yes"/>
      <point x="139" y="407"/>
      <point x="123" y="378"/>
      <point x="123" y="339" type="curve" smooth="yes"/>
      <point x="123" y="314" type="line"/>
      <point x="257" y="314" type="line"/>
      <point x="257" y="325" type="line" smooth="yes"/>
      <point x="257" y="332"/>
      <point x="258" y="339"/>
      <point x="261" y="344" type="curve" smooth="yes"/>
      <point x="264" y="349"/>
      <point x="270" y="354"/>
      <point x="277" y="358" type="curve"/>
      <point x="284" y="361"/>
      <point x="292" y="365"/>
      <point x="299" y="369" type="curve"/>
    </contour>
  </outline>
</glyph>
<glyph name="at" format="1">
  <advance width="669"/>
  <unicode hex="0040"/>
  <outline>
    <contour>
      <point x="675" y="840" type="line"/>
      <point x="675" y="0" type="line"/>
      <point x="-9" y="0" type="line"/>
      <point x="-9" y="840" type="line"/>
    </contour>
    <contour>
      <point x="617" y="345"/>
      <point x="634" y="385"/>
      <point x="634" y="430" type="curve" smooth="yes"/>
      <point x="634" y="513"/>
      <point x="602" y="586"/>
      <point x="546" y="641" type="curve" smooth="yes"/>
      <point x="491" y="696"/>
      <point x="419" y="729"/>
      <point x="335" y="729" type="curve" smooth="yes"/>
      <point x="252" y="729"/>
      <point x="179" y="696"/>
      <point x="124" y="641" type="curve" smooth="yes"/>
      <point x="69" y="586"/>
      <point x="36" y="513"/>
      <point x="36" y="430" type="curve" smooth="yes"/>
      <point x="36" y="355"/>
      <point x="63" y="291"/>
      <point x="108" y="236" type="curve"/>
      <point x="109" y="235"/>
      <point x="111" y="233"/>
      <point x="112" y="232" type="curve"/>
      <point x="113" y="230"/>
      <point x="115" y="228"/>
      <point x="116" y="227" type="curve" smooth="yes"/>
      <point x="124" y="219" type="line" smooth="yes"/>
      <point x="139" y="204"/>
      <point x="153" y="193"/>
      <point x="169" y="182" type="curve" smooth="yes"/>
      <point x="186" y="171"/>
      <point x="202" y="162"/>
      <point x="219" y="155" type="curve"/>
      <point x="220" y="155" type="line"/>
      <point x="220" y="154" type="line"/>
      <point x="221" y="154"/>
      <point x="222" y="154"/>
      <point x="222" y="153" type="curve"/>
      <point x="224" y="153" type="line"/>
      <point x="241" y="146"/>
      <point x="259" y="140"/>
      <point x="278" y="137" type="curve"/>
      <point x="296" y="133"/>
      <point x="315" y="131"/>
      <point x="335" y="131" type="curve" smooth="yes"/>
      <point x="387" y="131"/>
      <point x="443" y="146"/>
      <point x="487" y="173" type="curve"/>
      <point x="434" y="226" type="line"/>
      <point x="381" y="279" type="line"/>
      <point x="362" y="274"/>
      <point x="346" y="271"/>
      <point x="327" y="272" type="curve" smooth="yes"/>
      <point x="308" y="273"/>
      <point x="290" y="278"/>
      <point x="273" y="285" type="curve"/>
      <point x="272" y="285" type="line" smooth="yes"/>
      <point x="272" y="285"/>
      <point x="272" y="285"/>
      <point x="271" y="286" type="curve"/>
      <point x="270" y="286" type="line"/>
      <point x="243" y="299"/>
      <point x="219" y="319"/>
      <point x="203" y="344" type="curve" smooth="yes"/>
      <point x="187" y="368"/>
      <point x="177" y="398"/>
      <point x="177" y="430" type="curve" smooth="yes"/>
      <point x="177" y="474"/>
      <point x="195" y="513"/>
      <point x="224" y="542" type="curve" smooth="yes"/>
      <point x="252" y="570"/>
      <point x="292" y="588"/>
      <point x="335" y="588" type="curve" smooth="yes"/>
      <point x="379" y="588"/>
      <point x="418" y="570"/>
      <point x="447" y="542" type="curve"/>
      <point x="475" y="513"/>
      <point x="493" y="474"/>
      <point x="493" y="430" type="curve" smooth="yes"/>
      <point x="493" y="417"/>
      <point x="483" y="406"/>
      <point x="470" y="406" type="curve" smooth="yes"/>
      <point x="465" y="406"/>
      <point x="459" y="412"/>
      <point x="459" y="423" type="curve" smooth="yes"/>
      <point x="459" y="424"/>
      <point x="459" y="426"/>
      <point x="460" y="427" type="curve"/>
      <point x="460" y="428"/>
      <point x="460" y="429"/>
      <point x="460" y="430" type="curve" smooth="yes"/>
      <point x="460" y="465"/>
      <point x="446" y="495"/>
      <point x="423" y="518" type="curve" smooth="yes"/>
      <point x="400" y="541"/>
      <point x="370" y="554"/>
      <point x="335" y="554" type="curve" smooth="yes"/>
      <point x="300" y="554"/>
      <point x="270" y="541"/>
      <point x="248" y="518" type="curve" smooth="yes"/>
      <point x="226" y="495"/>
      <point x="211" y="465"/>
      <point x="211" y="430" type="curve" smooth="yes"/>
      <point x="211" y="395"/>
      <point x="226" y="365"/>
      <point x="248" y="342" type="curve" smooth="yes"/>
      <point x="270" y="319"/>
      <point x="300" y="306"/>
      <point x="335" y="306" type="curve" smooth="yes"/>
      <point x="346" y="306"/>
      <point x="361" y="308"/>
      <point x="372" y="311" type="curve"/>
      <point x="400" y="283"/>
      <point x="431" y="266"/>
      <point x="470" y="266" type="curve" smooth="yes"/>
      <point x="515" y="266"/>
      <point x="555" y="285"/>
      <point x="586" y="314" type="curve" smooth="yes"/>
    </contour>
  </outline>
</glyph>
<glyph name="F" format="1">
  <advance width="458"/>
  <unicode hex="0046"/>
  <outline>
    <contour>
      <point x="-3" y="839" type="line"/>
      <point x="467" y="839" type="line"/>
      <point x="467" y="0" type="line"/>
      <point x="-3" y="0" type="line"/>
    </contour>
    <contour>
      <point x="429" y="594" type="line"/>
      <point x="429" y="734" type="line"/>
      <point x="49" y="734" type="line"/>
      <point x="49" y="114" type="line"/>
      <point x="189" y="114" type="line"/>
      <point x="189" y="354" type="line"/>
      <point x="366" y="354" type="line"/>
      <point x="366" y="494" type="line"/>
      <point x="189" y="494" type="line"/>
      <point x="189" y="594" type="line"/>
    </contour>
  </outline>
</glyph>
<glyph name="G" format="1">
  <advance width="522"/>
  <unicode hex="0047"/>
  <outline>
    <contour>
      <point x="525" y="839" type="line"/>
      <point x="525" y="0" type="line"/>
      <point x="-5" y="0" type="line"/>
      <point x="-5" y="839" type="line"/>
    </contour>
    <contour>
      <point x="494" y="423" type="line"/>
      <point x="253" y="423" type="line"/>
      <point x="253" y="294" type="line"/>
      <point x="331" y="294" type="line"/>
      <point x="312" y="269"/>
      <point x="285" y="254"/>
      <point x="253" y="254" type="curve" smooth="yes"/>
      <point x="225" y="254"/>
      <point x="201" y="266"/>
      <point x="183" y="286" type="curve" smooth="yes"/>
      <point x="165" y="306"/>
      <point x="153" y="332"/>
      <point x="153" y="363" type="curve" smooth="yes"/>
      <point x="153" y="485" type="line" smooth="yes"/>
      <point x="153" y="514"/>
      <point x="165" y="542"/>
      <point x="183" y="562" type="curve" smooth="yes"/>
      <point x="201" y="582"/>
      <point x="225" y="594"/>
      <point x="253" y="594" type="curve" smooth="yes"/>
      <point x="281" y="594"/>
      <point x="307" y="582"/>
      <point x="325" y="562" type="curve" smooth="yes"/>
      <point x="343" y="542"/>
      <point x="354" y="514"/>
      <point x="354" y="485" type="curve"/>
      <point x="494" y="485" type="line"/>
      <point x="494" y="552"/>
      <point x="469" y="613"/>
      <point x="425" y="660" type="curve" smooth="yes"/>
      <point x="378" y="708"/>
      <point x="318" y="734"/>
      <point x="254" y="734" type="curve" smooth="yes"/>
      <point x="253" y="734" type="line" smooth="yes"/>
      <point x="186" y="734"/>
      <point x="129" y="709"/>
      <point x="82" y="660" type="curve" smooth="yes"/>
      <point x="38" y="613"/>
      <point x="14" y="552"/>
      <point x="13" y="487" type="curve" smooth="yes"/>
      <point x="13" y="359" type="line" smooth="yes"/>
      <point x="14" y="294"/>
      <point x="39" y="235"/>
      <point x="82" y="188" type="curve" smooth="yes"/>
      <point x="129" y="139"/>
      <point x="186" y="114"/>
      <point x="253" y="114" type="curve" smooth="yes"/>
      <point x="254" y="114" type="line" smooth="yes"/>
      <point x="293" y="114"/>
      <point x="329" y="126"/>
      <point x="364" y="146" type="curve"/>
      <point x="364" y="114" type="line"/>
      <point x="493" y="114" type="line"/>
      <point x="493" y="347" type="line" smooth="yes"/>
      <point x="493" y="350"/>
      <point x="493" y="353"/>
      <point x="494" y="356" type="curve"/>
      <point x="494" y="358"/>
      <point x="494" y="360"/>
      <point x="494" y="363" type="curve" smooth="yes"/>
    </contour>
  </outline>
</glyph>
<glyph name="H" format="1">
  <advance width="516"/>
  <unicode hex="0048"/>
  <outline>
    <contour>
      <point x="-6" y="839" type="line"/>
      <point x="522" y="839" type="line"/>
      <point x="522" y="0" type="line"/>
      <point x="-6" y="0" type="line"/>
    </contour>
    <contour>
      <point x="474" y="114" type="line"/>
      <point x="474" y="734" type="line"/>
      <point x="334" y="734" type="line"/>
      <point x="334" y="494" type="line"/>
      <point x="168" y="494" type="line"/>
      <point x="168" y="734" type="line"/>
      <point x="28" y="734" type="line"/>
      <point x="28" y="114" type="line"/>
      <point x="168" y="114" type="line"/>
      <point x="168" y="354" type="line"/>
      <point x="334" y="354" type="line"/>
      <point x="334" y="114" type="line"/>
    </contour>
  </outline>
</glyph>
<glyph name="J" format="1">
  <advance width="429"/>
  <unicode hex="004A"/>
  <outline>
    <contour>
      <point x="437" y="839" type="line"/>
      <point x="437" y="0" type="line"/>
      <point x="-8" y="0" type="line"/>
      <point x="-8" y="839" type="line"/>
    </contour>
    <contour>
      <point x="400" y="734" type="line"/>
      <point x="260" y="734" type="line"/>
      <point x="260" y="306" type="line" smooth="yes"/>
      <point x="260" y="277"/>
      <point x="236" y="254"/>
      <point x="208" y="254" type="curve" smooth="yes"/>
      <point x="179" y="254"/>
      <point x="156" y="277"/>
      <point x="156" y="306" type="curve"/>
      <point x="16" y="306" type="line"/>
      <point x="16" y="253"/>
      <point x="37" y="205"/>
      <point x="72" y="170" type="curve" smooth="yes"/>
      <point x="107" y="135"/>
      <point x="155" y="114"/>
      <point x="208" y="114" type="curve" smooth="yes"/>
      <point x="260" y="114"/>
      <point x="307" y="136"/>
      <point x="342" y="170" type="curve" smooth="yes"/>
      <point x="377" y="204"/>
      <point x="399" y="251"/>
      <point x="400" y="303" type="curve" smooth="yes"/>
    </contour>
  </outline>
</glyph>
<glyph name="K" format="1">
  <advance width="478"/>
  <unicode hex="004B"/>
  <outline>
    <contour>
      <point x="-6" y="839" type="line"/>
      <point x="489" y="839" type="line"/>
      <point x="489" y="0" type="line"/>
      <point x="-6" y="0" type="line"/>
    </contour>
    <contour>
      <point x="467" y="114" type="line"/>
      <point x="203" y="423" type="line"/>
      <point x="468" y="734" type="line"/>
      <point x="328" y="734" type="line"/>
      <point x="169" y="556" type="line"/>
      <point x="169" y="734" type="line"/>
      <point x="29" y="734" type="line"/>
      <point x="29" y="114" type="line"/>
      <point x="169" y="114" type="line"/>
      <point x="169" y="289" type="line"/>
      <point x="327" y="114" type="line"/>
    </contour>
  </outline>
</glyph>
<glyph name="L" format="1">
  <advance width="408"/>
  <unicode hex="004C"/>
  <outline>
    <contour>
      <point x="-8" y="839" type="line"/>
      <point x="420" y="839" type="line"/>
      <point x="420" y="0" type="line"/>
      <point x="-8" y="0" type="line"/>
    </contour>
    <contour>
      <point x="380" y="114" type="line"/>
      <point x="380" y="254" type="line"/>
      <point x="182" y="254" type="line"/>
      <point x="182" y="734" type="line"/>
      <point x="42" y="734" type="line"/>
      <point x="42" y="114" type="line"/>
    </contour>
  </outline>
</glyph>
<glyph name="M" format="1">
  <advance width="654"/>
  <unicode hex="004D"/>
  <outline>
    <contour>
      <point x="-8" y="839" type="line"/>
      <point x="660" y="839" type="line"/>
      <point x="660" y="0" type="line"/>
      <point x="-8" y="0" type="line"/>
    </contour>
    <contour>
      <point x="610" y="733" type="line"/>
      <point x="611" y="734" type="line"/>
      <point x="470" y="734" type="line"/>
      <point x="470" y="733" type="line"/>
      <point x="325" y="315" type="line"/>
      <point x="180" y="734" type="line"/>
      <point x="38" y="734" type="line"/>
      <point x="38" y="114" type="line"/>
      <point x="178" y="114" type="line"/>
      <point x="178" y="337" type="line"/>
      <point x="255" y="114" type="line"/>
      <point x="395" y="114" type="line"/>
      <point x="470" y="330" type="line"/>
      <point x="470" y="114" type="line"/>
      <point x="610" y="114" type="line"/>
    </contour>
  </outline>
</glyph>
<glyph name="O" format="1">
  <advance width="542"/>
  <unicode hex="004F"/>
  <outline>
    <contour>
      <point x="550" y="839" type="line"/>
      <point x="550" y="0" type="line"/>
      <point x="-7" y="0" type="line"/>
      <point x="-7" y="839" type="line"/>
    </contour>
    <contour>
      <point x="514" y="360" type="line"/>
      <point x="514" y="410" type="line"/>
      <point x="514" y="487" type="line"/>
      <point x="514" y="506" type="line"/>
      <point x="509" y="565"/>
      <point x="484" y="618"/>
      <point x="444" y="659" type="curve" smooth="yes"/>
      <point x="399" y="707"/>
      <point x="338" y="734"/>
      <point x="274" y="734" type="curve" smooth="yes"/>
      <point x="273" y="734" type="line" smooth="yes"/>
      <point x="208" y="734"/>
      <point x="147" y="707"/>
      <point x="102" y="659" type="curve" smooth="yes"/>
      <point x="62" y="616"/>
      <point x="38" y="564"/>
      <point x="33" y="505" type="curve"/>
      <point x="33" y="360" type="line" smooth="yes"/>
      <point x="34" y="295"/>
      <point x="58" y="234"/>
      <point x="102" y="187" type="curve" smooth="yes"/>
      <point x="149" y="140"/>
      <point x="208" y="113"/>
      <point x="273" y="113" type="curve" smooth="yes"/>
      <point x="274" y="113" type="line" smooth="yes"/>
      <point x="338" y="113"/>
      <point x="399" y="140"/>
      <point x="444" y="187" type="curve" smooth="yes"/>
      <point x="488" y="234"/>
      <point x="513" y="295"/>
      <point x="513" y="360" type="curve"/>
    </contour>
  </outline>
</glyph>
<glyph name="T" format="1">
  <advance width="475"/>
  <unicode hex="0054"/>
  <outline>
    <contour>
      <point x="-13" y="838" type="line"/>
      <point x="480" y="838" type="line"/>
      <point x="480" y="-1" type="line"/>
      <point x="-13" y="-1" type="line"/>
    </contour>
    <contour>
      <point x="443" y="593" type="line"/>
      <point x="443" y="733" type="line"/>
      <point x="21" y="733" type="line"/>
      <point x="21" y="593" type="line"/>
      <point x="162" y="593" type="line"/>
      <point x="162" y="113" type="line"/>
      <point x="302" y="113" type="line"/>
      <point x="302" y="593" type="line"/>
    </contour>
  </outline>
</glyph>
<glyph name="V" format="1">
  <advance width="610"/>
  <unicode hex="0056"/>
  <outline>
    <contour>
      <point x="-8" y="839" type="line"/>
      <point x="621" y="839" type="line"/>
      <point x="621" y="0" type="line"/>
      <point x="-8" y="0" type="line"/>
    </contour>
    <contour>
      <point x="375" y="114" type="line"/>
      <point x="590" y="734" type="line"/>
      <point x="450" y="734" type="line"/>
      <point x="304" y="312" type="line"/>
      <point x="158" y="734" type="line"/>
      <point x="18" y="734" type="line"/>
      <point x="233" y="114" type="line"/>
    </contour>
  </outline>
</glyph>
<glyph name="W" format="1">
  <advance width="788"/>
  <unicode hex="0057"/>
  <outline>
    <contour>
      <point x="-4" y="839" type="line"/>
      <point x="793" y="839" type="line"/>
      <point x="793" y="0" type="line"/>
      <point x="-4" y="0" type="line"/>
    </contour>
    <contour>
      <point x="617" y="114" type="line"/>
      <point x="768" y="734" type="line"/>
      <point x="628" y="734" type="line"/>
      <point x="546" y="397" type="line"/>
      <point x="464" y="734" type="line"/>
      <point x="322" y="734" type="line"/>
      <point x="240" y="397" type="line"/>
      <point x="158" y="734" type="line"/>
      <point x="18" y="734" type="line"/>
      <point x="169" y="114" type="line"/>
      <point x="311" y="114" type="line"/>
      <point x="393" y="450" type="line"/>
      <point x="475" y="114" type="line"/>
    </contour>
  </outline>
</glyph>
<glyph name="X" format="1">
  <advance width="537"/>
  <unicode hex="0058"/>
  <outline>
    <contour>
      <point x="-9" y="839" type="line"/>
      <point x="543" y="839" type="line"/>
      <point x="543" y="0" type="line"/>
      <point x="-9" y="0" type="line"/>
    </contour>
    <contour>
      <point x="504" y="114" type="line"/>
      <point x="338" y="424" type="line"/>
      <point x="504" y="734" type="line"/>
      <point x="364" y="734" type="line"/>
      <point x="268" y="554" type="line"/>
      <point x="171" y="734" type="line"/>
      <point x="31" y="734" type="line"/>
      <point x="198" y="424" type="line"/>
      <point x="31" y="114" type="line"/>
      <point x="171" y="114" type="line"/>
      <point x="268" y="294" type="line"/>
      <point x="364" y="114" type="line"/>
    </contour>
  </outline>
</glyph>
<glyph name="grave" format="1">
  <advance width="209"/>
  <unicode hex="0060"/>
  <outline>
    <contour>
      <point x="-7" y="840" type="line"/>
      <point x="216" y="840" type="line"/>
      <point x="216" y="0" type="line"/>
      <point x="-7" y="0" type="line"/>
    </contour>
    <contour>
      <point x="172" y="592" type="line"/>
      <point x="172" y="727" type="line"/>
      <point x="38" y="727" type="line"/>
      <point x="38" y="592" type="line"/>
      <point x="90" y="592" type="line"/>
      <point x="47" y="517" type="line"/>
      <point x="129" y="517" type="line"/>
    </contour>
  </outline>
</glyph>
<glyph name="a" format="1">
  <advance width="619"/>
  <unicode hex="0061"/>
  <outline>
    <contour>
      <point x="-8" y="839" type="line"/>
      <point x="626" y="839" type="line"/>
      <point x="626" y="0" type="line"/>
      <point x="-8" y="0" type="line"/>
    </contour>
    <contour>
      <point x="444" y="114" type="line"/>
      <point x="595" y="114" type="line"/>
      <point x="380" y="734" type="line"/>
      <point x="227" y="734" type="line"/>
      <point x="12" y="114" type="line"/>
      <point x="162" y="114" type="line"/>
      <point x="246" y="354" type="line"/>
      <point x="361" y="354" type="line"/>
    </contour>
  </outline>
</glyph>
<glyph name="b" format="1">
  <advance width="415"/>
  <unicode hex="0062"/>
  <outline>
    <contour>
      <point x="426" y="839" type="line"/>
      <point x="426" y="0" type="line"/>
      <point x="-6" y="0" type="line"/>
      <point x="-6" y="839" type="line"/>
    </contour>
    <contour>
      <point x="389" y="342"/>
      <point x="353" y="396"/>
      <point x="301" y="424" type="curve"/>
      <point x="353" y="451"/>
      <point x="389" y="506"/>
      <point x="389" y="570" type="curve" smooth="yes"/>
      <point x="389" y="615"/>
      <point x="370" y="656"/>
      <point x="341" y="686" type="curve" smooth="yes"/>
      <point x="312" y="716"/>
      <point x="270" y="734"/>
      <point x="225" y="734" type="curve" smooth="yes"/>
      <point x="221" y="734" type="line"/>
      <point x="31" y="734" type="line"/>
      <point x="31" y="114" type="line"/>
      <point x="221" y="114" type="line"/>
      <point x="225" y="114" type="line" smooth="yes"/>
      <point x="270" y="114"/>
      <point x="312" y="133"/>
      <point x="341" y="162" type="curve" smooth="yes"/>
      <point x="370" y="191"/>
      <point x="389" y="233"/>
      <point x="389" y="278" type="curve" smooth="yes"/>
    </contour>
  </outline>
</glyph>
<glyph name="c" format="1">
  <advance width="529"/>
  <unicode hex="0063"/>
  <outline>
    <contour>
      <point x="537" y="839" type="line"/>
      <point x="537" y="0" type="line"/>
      <point x="-9" y="0" type="line"/>
      <point x="-9" y="839" type="line"/>
    </contour>
    <contour>
      <point x="239" y="254"/>
      <point x="215" y="266"/>
      <point x="197" y="286" type="curve" smooth="yes"/>
      <point x="179" y="306"/>
      <point x="167" y="332"/>
      <point x="167" y="363" type="curve" smooth="yes"/>
      <point x="167" y="485" type="line" smooth="yes"/>
      <point x="167" y="514"/>
      <point x="179" y="542"/>
      <point x="197" y="562" type="curve" smooth="yes"/>
      <point x="215" y="582"/>
      <point x="239" y="594"/>
      <point x="267" y="594" type="curve" smooth="yes"/>
      <point x="295" y="594"/>
      <point x="321" y="582"/>
      <point x="339" y="562" type="curve" smooth="yes"/>
      <point x="357" y="542"/>
      <point x="368" y="514"/>
      <point x="368" y="485" type="curve"/>
      <point x="508" y="485" type="line"/>
      <point x="508" y="552"/>
      <point x="483" y="613"/>
      <point x="439" y="660" type="curve" smooth="yes"/>
      <point x="392" y="709"/>
      <point x="335" y="734"/>
      <point x="268" y="734" type="curve" smooth="yes"/>
      <point x="267" y="734" type="line" smooth="yes"/>
      <point x="200" y="734"/>
      <point x="143" y="709"/>
      <point x="96" y="660" type="curve" smooth="yes"/>
      <point x="52" y="613"/>
      <point x="28" y="552"/>
      <point x="27" y="487" type="curve" smooth="yes"/>
      <point x="27" y="359" type="line" smooth="yes"/>
      <point x="28" y="294"/>
      <point x="53" y="235"/>
      <point x="96" y="188" type="curve" smooth="yes"/>
      <point x="143" y="139"/>
      <point x="200" y="114"/>
      <point x="267" y="114" type="curve" smooth="yes"/>
      <point x="268" y="114" type="line" smooth="yes"/>
      <point x="333" y="114"/>
      <point x="392" y="140"/>
      <point x="439" y="188" type="curve" smooth="yes"/>
      <point x="483" y="235"/>
      <point x="508" y="296"/>
      <point x="508" y="363" type="curve"/>
      <point x="368" y="363" type="line"/>
      <point x="368" y="332"/>
      <point x="357" y="306"/>
      <point x="339" y="286" type="curve" smooth="yes"/>
      <point x="321" y="266"/>
      <point x="295" y="254"/>
      <point x="267" y="254" type="curve" smooth="yes"/>
    </contour>
  </outline>
</glyph>
<glyph name="d" format="1">
  <advance width="531"/>
  <unicode hex="0064"/>
  <outline>
    <contour>
      <point x="539" y="838" type="line"/>
      <point x="539" y="-1" type="line"/>
      <point x="-2" y="-1" type="line"/>
      <point x="-2" y="838" type="line"/>
    </contour>
    <contour>
      <point x="464" y="263"/>
      <point x="495" y="339"/>
      <point x="495" y="423" type="curve" smooth="yes"/>
      <point x="495" y="507"/>
      <point x="464" y="583"/>
      <point x="404" y="642" type="curve" smooth="yes"/>
      <point x="344" y="702"/>
      <point x="266" y="733"/>
      <point x="182" y="733" type="curve" smooth="yes"/>
      <point x="57" y="733" type="line"/>
      <point x="57" y="113" type="line"/>
      <point x="182" y="113" type="line"/>
      <point x="201" y="113" type="line"/>
      <point x="277" y="117"/>
      <point x="348" y="148"/>
      <point x="404" y="203" type="curve" smooth="yes"/>
    </contour>
  </outline>
</glyph>
<glyph name="e" format="1">
  <advance width="441"/>
  <unicode hex="0065"/>
  <outline>
    <contour>
      <point x="-8" y="839" type="line"/>
      <point x="450" y="839" type="line"/>
      <point x="450" y="0" type="line"/>
      <point x="-8" y="0" type="line"/>
    </contour>
    <contour>
      <point x="409" y="594" type="line"/>
      <point x="409" y="734" type="line"/>
      <point x="29" y="734" type="line"/>
      <point x="29" y="114" type="line"/>
      <point x="409" y="114" type="line"/>
      <point x="409" y="254" type="line"/>
      <point x="169" y="254" type="line"/>
      <point x="169" y="354" type="line"/>
      <point x="346" y="354" type="line"/>
      <point x="346" y="494" type="line"/>
      <point x="169" y="494" type="line"/>
      <point x="169" y="594" type="line"/>
    </contour>
  </outline>
</glyph>
<glyph name="i" format="1">
  <advance width="220"/>
  <unicode hex="0069"/>
  <outline>
    <contour>
      <point x="-13" y="839" type="line"/>
      <point x="226" y="839" type="line"/>
      <point x="226" y="0" type="line"/>
      <point x="-13" y="0" type="line"/>
    </contour>
    <contour>
      <point x="175" y="114" type="line"/>
      <point x="175" y="734" type="line"/>
      <point x="35" y="734" type="line"/>
      <point x="35" y="114" type="line"/>
    </contour>
  </outline>
</glyph>
<glyph name="n" format="1">
  <advance width="519"/>
  <unicode hex="006E"/>
  <outline>
    <contour>
      <point x="-9" y="839" type="line"/>
      <point x="530" y="839" type="line"/>
      <point x="530" y="0" type="line"/>
      <point x="-9" y="0" type="line"/>
    </contour>
    <contour>
      <point x="489" y="114" type="line"/>
      <point x="489" y="734" type="line"/>
      <point x="349" y="734" type="line"/>
      <point x="349" y="388" type="line"/>
      <point x="175" y="734" type="line"/>
      <point x="32" y="734" type="line"/>
      <point x="32" y="114" type="line"/>
      <point x="172" y="114" type="line"/>
      <point x="172" y="460" type="line"/>
      <point x="347" y="114" type="line"/>
    </contour>
  </outline>
</glyph>
<glyph name="p" format="1">
  <advance width="443"/>
  <unicode hex="0070"/>
  <outline>
    <contour>
      <point x="450" y="839" type="line"/>
      <point x="450" y="0" type="line"/>
      <point x="-4" y="0" type="line"/>
      <point x="-4" y="839" type="line"/>
    </contour>
    <contour>
      <point x="224" y="349" type="line" smooth="yes"/>
      <point x="277" y="349"/>
      <point x="325" y="370"/>
      <point x="361" y="405" type="curve" smooth="yes"/>
      <point x="396" y="440"/>
      <point x="417" y="488"/>
      <point x="417" y="541" type="curve" smooth="yes"/>
      <point x="417" y="594"/>
      <point x="396" y="642"/>
      <point x="361" y="678" type="curve" smooth="yes"/>
      <point x="325" y="713"/>
      <point x="277" y="734"/>
      <point x="224" y="734" type="curve" smooth="yes"/>
      <point x="223" y="734" type="line"/>
      <point x="35" y="734" type="line"/>
      <point x="35" y="114" type="line"/>
      <point x="175" y="114" type="line"/>
      <point x="175" y="349" type="line"/>
      <point x="223" y="349" type="line"/>
    </contour>
  </outline>
</glyph>
<glyph name="q" format="1">
  <advance width="577"/>
  <unicode hex="0071"/>
  <outline>
    <contour>
      <point x="580" y="839" type="line"/>
      <point x="580" y="0" type="line"/>
      <point x="-7" y="0" type="line"/>
      <point x="-7" y="839" type="line"/>
    </contour>
    <contour>
      <point x="558" y="114" type="line"/>
      <point x="481" y="256" type="line"/>
      <point x="496" y="289"/>
      <point x="504" y="323"/>
      <point x="504" y="360" type="curve" smooth="yes"/>
      <point x="504" y="410" type="line"/>
      <point x="504" y="487" type="line"/>
      <point x="504" y="506" type="line"/>
      <point x="500" y="565"/>
      <point x="475" y="618"/>
      <point x="435" y="659" type="curve" smooth="yes"/>
      <point x="390" y="707"/>
      <point x="329" y="734"/>
      <point x="264" y="734" type="curve" smooth="yes"/>
      <point x="199" y="734"/>
      <point x="138" y="707"/>
      <point x="93" y="659" type="curve" smooth="yes"/>
      <point x="53" y="616"/>
      <point x="28" y="564"/>
      <point x="24" y="505" type="curve"/>
      <point x="24" y="360" type="line" smooth="yes"/>
      <point x="24" y="295"/>
      <point x="49" y="234"/>
      <point x="93" y="187" type="curve" smooth="yes"/>
      <point x="138" y="140"/>
      <point x="199" y="113"/>
      <point x="264" y="113" type="curve" smooth="yes"/>
      <point x="309" y="113"/>
      <point x="351" y="126"/>
      <point x="388" y="149" type="curve"/>
      <point x="408" y="114" type="line"/>
    </contour>
  </outline>
</glyph>
<glyph name="r" format="1">
  <advance width="452"/>
  <unicode hex="0072"/>
  <outline>
    <contour>
      <point x="456" y="839" type="line"/>
      <point x="456" y="0" type="line"/>
      <point x="-13" y="0" type="line"/>
      <point x="-13" y="839" type="line"/>
    </contour>
    <contour>
      <point x="424" y="114" type="line"/>
      <point x="306" y="370" type="line"/>
      <point x="370" y="401"/>
      <point x="412" y="465"/>
      <point x="412" y="541" type="curve" smooth="yes"/>
      <point x="412" y="594"/>
      <point x="390" y="642"/>
      <point x="355" y="678" type="curve" smooth="yes"/>
      <point x="320" y="713"/>
      <point x="272" y="734"/>
      <point x="219" y="734" type="curve" smooth="yes"/>
      <point x="218" y="734" type="line"/>
      <point x="30" y="734" type="line"/>
      <point x="30" y="114" type="line"/>
      <point x="170" y="114" type="line"/>
      <point x="170" y="349" type="line"/>
      <point x="171" y="349" type="line"/>
      <point x="279" y="114" type="line"/>
    </contour>
  </outline>
</glyph>
<glyph name="s" format="1">
  <advance width="436"/>
  <unicode hex="0073"/>
  <outline>
    <contour>
      <point x="451" y="838" type="line"/>
      <point x="451" y="-1" type="line"/>
      <point x="-13" y="-1" type="line"/>
      <point x="-13" y="838" type="line"/>
    </contour>
    <contour>
      <point x="398" y="357"/>
      <point x="377" y="405"/>
      <point x="342" y="439" type="curve" smooth="yes"/>
      <point x="307" y="473"/>
      <point x="259" y="493"/>
      <point x="207" y="493" type="curve" smooth="yes"/>
      <point x="178" y="493"/>
      <point x="155" y="513"/>
      <point x="155" y="541" type="curve" smooth="yes"/>
      <point x="155" y="544"/>
      <point x="156" y="549"/>
      <point x="157" y="556" type="curve"/>
      <point x="164" y="577"/>
      <point x="184" y="592"/>
      <point x="207" y="592" type="curve" smooth="yes"/>
      <point x="235" y="592"/>
      <point x="258" y="569"/>
      <point x="258" y="541" type="curve"/>
      <point x="398" y="541" type="line"/>
      <point x="398" y="593"/>
      <point x="377" y="641"/>
      <point x="342" y="677" type="curve" smooth="yes"/>
      <point x="307" y="712"/>
      <point x="259" y="733"/>
      <point x="207" y="733" type="curve" smooth="yes"/>
      <point x="164" y="733"/>
      <point x="124" y="719"/>
      <point x="92" y="695" type="curve" smooth="yes"/>
      <point x="60" y="671"/>
      <point x="36" y="637"/>
      <point x="24" y="598" type="curve" smooth="yes"/>
      <point x="18" y="580"/>
      <point x="15" y="561"/>
      <point x="15" y="541" type="curve" smooth="yes"/>
      <point x="15" y="488"/>
      <point x="37" y="442"/>
      <point x="72" y="408" type="curve" smooth="yes"/>
      <point x="107" y="374"/>
      <point x="154" y="353"/>
      <point x="207" y="353" type="curve" smooth="yes"/>
      <point x="235" y="353"/>
      <point x="258" y="333"/>
      <point x="258" y="304" type="curve" smooth="yes"/>
      <point x="258" y="301"/>
      <point x="257" y="296"/>
      <point x="256" y="289" type="curve"/>
      <point x="249" y="268"/>
      <point x="230" y="253"/>
      <point x="207" y="253" type="curve" smooth="yes"/>
      <point x="178" y="253"/>
      <point x="155" y="276"/>
      <point x="155" y="305" type="curve"/>
      <point x="15" y="305" type="line"/>
      <point x="15" y="252"/>
      <point x="36" y="204"/>
      <point x="71" y="169" type="curve" smooth="yes"/>
      <point x="106" y="134"/>
      <point x="154" y="113"/>
      <point x="207" y="113" type="curve" smooth="yes"/>
      <point x="250" y="113"/>
      <point x="290" y="127"/>
      <point x="322" y="151" type="curve" smooth="yes"/>
      <point x="354" y="175"/>
      <point x="378" y="209"/>
      <point x="390" y="248" type="curve"/>
      <point x="395" y="267"/>
      <point x="398" y="286"/>
      <point x="398" y="305" type="curve" smooth="yes"/>
    </contour>
  </outline>
</glyph>
<glyph name="u" format="1">
  <advance width="531"/>
  <unicode hex="0075"/>
  <outline>
    <contour>
      <point x="547" y="838" type="line"/>
      <point x="547" y="-1" type="line"/>
      <point x="-12" y="-1" type="line"/>
      <point x="-12" y="838" type="line"/>
    </contour>
    <contour>
      <point x="507" y="733" type="line"/>
      <point x="367" y="733" type="line"/>
      <point x="367" y="362" type="line" smooth="yes"/>
      <point x="367" y="331"/>
      <point x="356" y="304"/>
      <point x="338" y="284" type="curve" smooth="yes"/>
      <point x="320" y="264"/>
      <point x="295" y="252"/>
      <point x="267" y="252" type="curve" smooth="yes"/>
      <point x="239" y="252"/>
      <point x="214" y="264"/>
      <point x="196" y="284" type="curve" smooth="yes"/>
      <point x="178" y="304"/>
      <point x="166" y="331"/>
      <point x="166" y="362" type="curve" smooth="yes"/>
      <point x="166" y="733" type="line"/>
      <point x="26" y="733" type="line"/>
      <point x="26" y="359" type="line" smooth="yes"/>
      <point x="27" y="294"/>
      <point x="51" y="233"/>
      <point x="95" y="186" type="curve" smooth="yes"/>
      <point x="142" y="139"/>
      <point x="201" y="112"/>
      <point x="266" y="112" type="curve" smooth="yes"/>
      <point x="267" y="112" type="line" smooth="yes"/>
      <point x="332" y="112"/>
      <point x="391" y="139"/>
      <point x="438" y="186" type="curve" smooth="yes"/>
      <point x="482" y="233"/>
      <point x="506" y="294"/>
      <point x="507" y="359" type="curve" smooth="yes"/>
    </contour>
  </outline>
</glyph>
<glyph name="y" format="1">
  <advance width="528"/>
  <unicode hex="0079"/>
  <outline>
    <contour>
      <point x="-11" y="839" type="line"/>
      <point x="537" y="839" type="line"/>
      <point x="537" y="0" type="line"/>
      <point x="-11" y="0" type="line"/>
    </contour>
    <contour>
      <point x="332" y="423" type="line"/>
      <point x="499" y="734" type="line"/>
      <point x="359" y="734" type="line"/>
      <point x="262" y="554" type="line"/>
      <point x="165" y="734" type="line"/>
      <point x="25" y="734" type="line"/>
      <point x="192" y="424" type="line"/>
      <point x="192" y="114" type="line"/>
      <point x="332" y="114" type="line"/>
    </contour>
  </outline>
</glyph>
<glyph name="z" format="1">
  <advance width="464"/>
  <unicode hex="007A"/>
  <outline>
    <contour>
      <point x="-9" y="839" type="line"/>
      <point x="471" y="839" type="line"/>
      <point x="471" y="0" type="line"/>
      <point x="-9" y="0" type="line"/>
    </contour>
    <contour>
      <point x="430" y="594" type="line"/>
      <point x="430" y="734" type="line"/>
      <point x="27" y="734" type="line"/>
      <point x="27" y="594" type="line"/>
      <point x="267" y="594" type="line"/>
      <point x="27" y="254" type="line"/>
      <point x="27" y="114" type="line"/>
      <point x="430" y="114" type="line"/>
      <point x="430" y="254" type="line"/>
      <point x="188" y="254" type="line"/>
    </contour>
  </outline>
</glyph>
